# xmcd
#
# Track frame offsets: 
#        150
#        5987
#        43767
#        76187
#        109562
#        140110
#        174452
#        201042
#        234507
#
# Disc length: 3801 seconds
#
# Revision: 3
# Processed by: cddbd v1.5.2PL0 Copyright (c) Steve Scherf et al.
# Submitted via: ExactAudioCopy v0.99pb4
#
DISCID=740ed709
DTITLE=Johnny Heartsman and Blues Company - Made In Germany
DYEAR=1994
DGENRE=Blues
TTITLE0=Intro
TTITLE1=That's Allright
TTITLE2=Flute Juice
TTITLE3=Cold Cold Feeling
TTITLE4=I Don't Want No Woman
TTITLE5=Let Me Love You
TTITLE6=Ain't No Sunshine
TTITLE7=Sweet Frisco Blues
TTITLE8=Flip, Flop and Fly
EXTD=
EXTT0=
EXTT1=
EXTT2=
EXTT3=
EXTT4=
EXTT5=
EXTT6=
EXTT7=
EXTT8=
PLAYORDER=
